<svg width="16" height="16" viewBox="0 0 16 16" fill="none" xmlns="http://www.w3.org/2000/svg">
<path d="M6.69516 1.11555L0.184378 12.9529C0.0596653 13.1796 -0.00382064 13.4349 0.000177848 13.6936C0.00417634 13.9523 0.075521 14.2055 0.20718 14.4282C0.338839 14.651 0.526268 14.8356 0.750992 14.9638C0.975716 15.092 1.22998 15.1595 1.48872 15.1596H14.5113C14.77 15.1595 15.0243 15.092 15.249 14.9638C15.4737 14.8356 15.6612 14.651 15.7928 14.4282C15.9245 14.2055 15.9958 13.9523 15.9998 13.6936C16.0038 13.4349 15.9403 13.1796 15.8156 12.9529L9.30384 1.11555C9.17531 0.882099 8.98647 0.687423 8.75704 0.551837C8.52762 0.416251 8.266 0.344727 7.9995 0.344727C7.73301 0.344727 7.47139 0.416251 7.24196 0.551837C7.01253 0.687423 6.8237 0.882099 6.69516 1.11555ZM7.9995 4.9849C8.19695 4.9849 8.38632 5.06333 8.52594 5.20295C8.66555 5.34257 8.74399 5.53193 8.74399 5.72938V9.69998C8.74399 9.89743 8.66555 10.0868 8.52594 10.2264C8.38632 10.366 8.19695 10.4445 7.9995 10.4445C7.80205 10.4445 7.61269 10.366 7.47307 10.2264C7.33345 10.0868 7.25502 9.89743 7.25502 9.69998V5.72938C7.25502 5.53193 7.33345 5.34257 7.47307 5.20295C7.61269 5.06333 7.80205 4.9849 7.9995 4.9849ZM8.74399 11.9334C8.74399 12.1309 8.66555 12.3203 8.52594 12.4599C8.38632 12.5995 8.19695 12.6779 7.9995 12.6779C7.80205 12.6779 7.61269 12.5995 7.47307 12.4599C7.33345 12.3203 7.25502 12.1309 7.25502 11.9334C7.25502 11.736 7.33345 11.5466 7.47307 11.407C7.61269 11.2674 7.80205 11.189 7.9995 11.189C8.19695 11.189 8.38632 11.2674 8.52594 11.407C8.66555 11.5466 8.74399 11.736 8.74399 11.9334Z" fill="#F85656"/>
</svg>
