<svg width="36" height="36" viewBox="0 0 44 44" fill="none" xmlns="http://www.w3.org/2000/svg">
<g filter="url(#filter0_d_1952_8309)">
<rect x="10" y="7" width="24" height="24" rx="12" fill="white"/>
<rect x="11" y="8" width="22" height="22" rx="11" stroke="#4F4F4F" stroke-width="2"/>
<path d="M16.7729 12.9038V18H15.3647V14.6606C15.1369 14.8338 14.9159 14.974 14.7017 15.0811C14.4897 15.1882 14.2231 15.2907 13.9019 15.3887V14.2471C14.3758 14.0944 14.7438 13.911 15.0059 13.6968C15.2679 13.4826 15.473 13.2183 15.6211 12.9038H16.7729ZM17.6924 25H13.5156C13.5635 24.5876 13.7082 24.2002 13.9497 23.8379C14.1935 23.4733 14.6493 23.0438 15.3169 22.5493C15.7248 22.2463 15.9857 22.0161 16.0996 21.8589C16.2135 21.7017 16.2705 21.5524 16.2705 21.4111C16.2705 21.2585 16.2135 21.1286 16.0996 21.0215C15.988 20.9121 15.8467 20.8574 15.6758 20.8574C15.498 20.8574 15.3522 20.9132 15.2383 21.0249C15.1266 21.1366 15.0514 21.3337 15.0127 21.6162L13.6182 21.5034C13.6729 21.1115 13.7731 20.8062 13.9189 20.5874C14.0648 20.3664 14.2699 20.1978 14.5342 20.0815C14.8008 19.9631 15.1688 19.9038 15.6382 19.9038C16.1281 19.9038 16.5086 19.9596 16.7798 20.0713C17.0532 20.1829 17.2674 20.355 17.4224 20.5874C17.5796 20.8175 17.6582 21.0762 17.6582 21.3633C17.6582 21.6686 17.5682 21.9603 17.3882 22.2383C17.2104 22.5163 16.8857 22.8216 16.4141 23.1543C16.1338 23.348 15.9458 23.4836 15.8501 23.561C15.7567 23.6385 15.6462 23.7399 15.5186 23.8652H17.6924V25Z" fill="#4F4F4F"/>
<path d="M20 15.3998C20 15.2407 20.0683 15.0881 20.19 14.9755C20.3116 14.863 20.4766 14.7998 20.6486 14.7998L31.3514 14.7998C31.5234 14.7998 31.6884 14.863 31.81 14.9755C31.9317 15.0881 32 15.2407 32 15.3998C32 15.5589 31.9317 15.7115 31.81 15.8241C31.6884 15.9366 31.5234 15.9998 31.3514 15.9998H20.6486C20.4766 15.9998 20.3116 15.9366 20.19 15.8241C20.0683 15.7115 20 15.5589 20 15.3998Z" fill="#4F4F4F" stroke="#4F4F4F"/>
<path d="M20 22.6C20 22.4409 20.0683 22.2883 20.19 22.1757C20.3116 22.0632 20.4766 22 20.6486 22L31.3514 22C31.5234 22 31.6884 22.0632 31.81 22.1757C31.9317 22.2883 32 22.4409 32 22.6C32 22.7591 31.9317 22.9117 31.81 23.0243C31.6884 23.1368 31.5234 23.2 31.3514 23.2H20.6486C20.4766 23.2 20.3116 23.1368 20.19 23.0243C20.0683 22.9117 20 22.7591 20 22.6Z" fill="#4F4F4F" stroke="#4F4F4F"/>
</g>
<defs>
<filter id="filter0_d_1952_8309" x="0" y="0" width="44" height="44" filterUnits="userSpaceOnUse" color-interpolation-filters="sRGB">
<feFlood flood-opacity="0" result="BackgroundImageFix"/>
<feColorMatrix in="SourceAlpha" type="matrix" values="0 0 0 0 0 0 0 0 0 0 0 0 0 0 0 0 0 0 127 0" result="hardAlpha"/>
<feOffset dy="3"/>
<feGaussianBlur stdDeviation="5"/>
<feColorMatrix type="matrix" values="0 0 0 0 0.579167 0 0 0 0 0.579167 0 0 0 0 0.579167 0 0 0 0.25 0"/>
<feBlend mode="normal" in2="BackgroundImageFix" result="effect1_dropShadow_1952_8309"/>
<feBlend mode="normal" in="SourceGraphic" in2="effect1_dropShadow_1952_8309" result="shape"/>
</filter>
</defs>
</svg>
