<svg width="80" height="80" viewBox="0 0 80 80" fill="none" xmlns="http://www.w3.org/2000/svg">
    <g clip-path="url(#clip0)">
    <path d="M76.5888 2.85743H22.0145C21.5673 2.85705 21.1243 2.94477 20.711 3.11558C20.2977 3.28638 19.922 3.53693 19.6055 3.85292C19.289 4.1689 19.0378 4.54413 18.8663 4.95719C18.6948 5.37025 18.6063 5.81304 18.606 6.26028V21.4289L50.2317 30.7146L80.0002 21.4289V6.26028C79.9999 5.8128 79.9113 5.36977 79.7396 4.95653C79.568 4.54329 79.3165 4.16793 78.9997 3.85191C78.6829 3.53588 78.3069 3.28539 77.8932 3.11476C77.4796 2.94412 77.0363 2.85668 76.5888 2.85743Z" fill="#41A5EE"/>
    <path d="M80.0002 21.4287H18.606V40.0001L50.2317 45.5716L80.0002 40.0001V21.4287Z" fill="#2B7CD3"/>
    <path d="M18.606 39.9995V58.5709L48.3717 62.2852L80.0002 58.5709V39.9995H18.606Z" fill="#185ABD"/>
    <path d="M22.0145 77.1427H76.586C77.0337 77.1439 77.4772 77.0567 77.8912 76.8862C78.3052 76.7157 78.6816 76.4653 78.9987 76.1493C79.3158 75.8332 79.5675 75.4577 79.7394 75.0443C79.9112 74.6309 79.9999 74.1876 80.0002 73.7399V58.5713H18.606V73.7399C18.6063 74.1871 18.6948 74.6299 18.8663 75.043C19.0378 75.456 19.289 75.8313 19.6055 76.1472C19.922 76.4632 20.2977 76.7138 20.711 76.8846C21.1243 77.0554 21.5673 77.1431 22.0145 77.1427Z" fill="#103F91"/>
    <path opacity="0.1" d="M41.2402 17.7144H18.606V64.1429H41.2402C42.1422 64.1384 43.006 63.7788 43.6445 63.1418C44.2831 62.5049 44.6449 61.642 44.6517 60.7401V21.1172C44.6449 20.2153 44.2831 19.3524 43.6445 18.7155C43.006 18.0785 42.1422 17.7188 41.2402 17.7144Z" fill="black"/>
    <path opacity="0.2" d="M39.3802 19.5713H18.606V65.9999H39.3802C40.2822 65.9954 41.146 65.6357 41.7845 64.9987C42.4231 64.3618 42.7849 63.4989 42.7917 62.597V22.9741C42.7849 22.0723 42.4231 21.2094 41.7845 20.5724C41.146 19.9355 40.2822 19.5758 39.3802 19.5713Z" fill="black"/>
    <path opacity="0.2" d="M39.3802 19.5713H18.606V62.2856H39.3802C40.2822 62.2811 41.146 61.9214 41.7845 61.2845C42.4231 60.6475 42.7849 59.7846 42.7917 58.8827V22.9741C42.7849 22.0723 42.4231 21.2094 41.7845 20.5724C41.146 19.9355 40.2822 19.5758 39.3802 19.5713Z" fill="black"/>
    <path opacity="0.2" d="M37.5202 19.5713H18.606V62.2856H37.5202C38.4221 62.2811 39.286 61.9214 39.9245 61.2845C40.5631 60.6475 40.9249 59.7846 40.9317 58.8827V22.9741C40.9249 22.0723 40.5631 21.2094 39.9245 20.5724C39.286 19.9355 38.4221 19.5758 37.5202 19.5713Z" fill="black"/>
    <path d="M3.41143 19.5713H37.52C38.4235 19.5705 39.2904 19.9285 39.93 20.5666C40.5697 21.2047 40.9299 22.0706 40.9314 22.9742V57.0256C40.9299 57.9291 40.5697 58.7951 39.93 59.4331C39.2904 60.0712 38.4235 60.4292 37.52 60.4284H3.41143C2.96394 60.4292 2.5207 60.3418 2.10702 60.1711C1.69335 60.0005 1.31736 59.75 1.00054 59.434C0.683723 59.118 0.432289 58.7426 0.260611 58.3293C0.0889322 57.9161 0.000374777 57.4731 0 57.0256V22.9742C0.000374777 22.5267 0.0889322 22.0836 0.260611 21.6704C0.432289 21.2572 0.683723 20.8818 1.00054 20.5658C1.31736 20.2498 1.69335 19.9993 2.10702 19.8286C2.5207 19.658 2.96394 19.5705 3.41143 19.5713Z" fill="url(#paint0_linear)"/>
    <path d="M14.0007 45.6793C14.0664 46.205 14.1121 46.6621 14.1321 47.0536H14.2121C14.2407 46.6821 14.3035 46.2336 14.3978 45.7107C14.4921 45.1879 14.575 44.745 14.6521 44.3821L18.2378 28.9336H22.8778L26.5921 44.1507C26.8084 45.092 26.9631 46.0464 27.055 47.0079H27.1178C27.1861 46.0719 27.3149 45.1414 27.5035 44.2221L30.4721 28.9136H34.6921L29.4807 51.0507H24.5464L21.0121 36.405C20.9092 35.9821 20.7931 35.4317 20.6635 34.7536C20.534 34.0755 20.454 33.5802 20.4235 33.2679H20.3635C20.3235 33.6279 20.2435 34.1621 20.1235 34.8707C20.0035 35.5821 19.9092 36.105 19.8378 36.4479L16.515 51.0593H11.4978L6.25781 28.9336H10.5435L13.775 44.4136C13.8714 44.8314 13.9467 45.2539 14.0007 45.6793Z" fill="white"/>
    </g>
    <defs>
    <linearGradient id="paint0_linear" x1="7.12571" y1="16.897" x2="33.8057" y2="63.1027" gradientUnits="userSpaceOnUse">
    <stop stop-color="#2368C4"/>
    <stop offset="0.5" stop-color="#1A5DBE"/>
    <stop offset="1" stop-color="#1146AC"/>
    </linearGradient>
    <clipPath id="clip0">
    <rect width="80" height="80" fill="white"/>
    </clipPath>
    </defs>
    </svg>
    