<svg width="70" height="80" viewBox="0 0 70 80" fill="none" xmlns="http://www.w3.org/2000/svg">
    <path d="M34.9997 42.6668H32.333V37.3335H34.9997C35.7069 37.3335 36.3852 37.6144 36.8853 38.1145C37.3854 38.6146 37.6663 39.2929 37.6663 40.0002C37.6663 40.7074 37.3854 41.3857 36.8853 41.8858C36.3852 42.3859 35.7069 42.6668 34.9997 42.6668Z" fill="url(#paint0_linear)"/>
    <path fill-rule="evenodd" clip-rule="evenodd" d="M0.333496 8C0.333496 5.87827 1.17635 3.84344 2.67664 2.34315C4.17693 0.842855 6.21176 0 8.3335 0L52.1042 0L69.6668 17.5627V72C69.6668 74.1217 68.824 76.1566 67.3237 77.6569C65.8234 79.1572 63.7886 80 61.6668 80H8.3335C6.21176 80 4.17693 79.1572 2.67664 77.6569C1.17635 76.1566 0.333496 74.1217 0.333496 72V8ZM35.0002 32H27.0002V58.6667H32.3335V48H35.0002C37.1219 48 39.1567 47.1571 40.657 45.6569C42.1573 44.1566 43.0002 42.1217 43.0002 40C43.0002 37.8783 42.1573 35.8434 40.657 34.3431C39.1567 32.8429 37.1219 32 35.0002 32ZM10.2215 32.7787C9.84854 32.4048 9.37296 32.15 8.85505 32.0467C8.33714 31.9434 7.80022 31.9963 7.31236 32.1985C6.8245 32.4007 6.40767 32.7432 6.11472 33.1827C5.82177 33.6221 5.66588 34.1386 5.66683 34.6667V58.6667H11.0002V41.104L13.6668 43.7707L16.3335 41.104V58.6667H21.6668V34.6667C21.6678 34.1386 21.5119 33.6221 21.2189 33.1827C20.926 32.7432 20.5092 32.4007 20.0213 32.1985C19.5334 31.9963 18.9965 31.9434 18.4786 32.0467C17.9607 32.15 17.4851 32.4048 17.1122 32.7787L13.6668 36.2293L10.2215 32.7787ZM56.3335 37.3333H48.3335V32H61.6668C62.1621 32 62.6475 32.1379 63.0688 32.3983C63.4901 32.6586 63.8305 33.0312 64.052 33.4741C64.2734 33.917 64.3672 34.4129 64.3227 34.9062C64.2783 35.3994 64.0973 35.8705 63.8002 36.2667L58.7282 43.0293C60.5556 43.5991 62.1181 44.8053 63.1321 46.4288C64.1461 48.0523 64.5443 49.9856 64.2546 51.8777C63.9648 53.7698 63.0063 55.4953 61.5529 56.7409C60.0995 57.9866 58.2477 58.6698 56.3335 58.6667H48.3335V53.3333H56.3335C57.0407 53.3333 57.719 53.0524 58.2191 52.5523C58.7192 52.0522 59.0002 51.3739 59.0002 50.6667C59.0002 49.9594 58.7192 49.2811 58.2191 48.781C57.719 48.281 57.0407 48 56.3335 48H53.6668C53.1716 48 52.6861 47.8621 52.2649 47.6017C51.8436 47.3414 51.5032 46.9689 51.2817 46.5259C51.0602 46.083 50.9665 45.5871 51.0109 45.0939C51.0554 44.6006 51.2364 44.1295 51.5335 43.7333L56.3335 37.3333Z" fill="url(#paint1_linear)"/>
    <defs>
    <linearGradient id="paint0_linear" x1="32.333" y1="37.3335" x2="37.6663" y2="42.6668" gradientUnits="userSpaceOnUse">
    <stop stop-color="#FF3D00"/>
    <stop offset="0.786458" stop-color="#FF7A00"/>
    <stop offset="0.984375" stop-color="#FF7A00"/>
    </linearGradient>
    <linearGradient id="paint1_linear" x1="0.333496" y1="0" x2="79.5213" y2="68.6294" gradientUnits="userSpaceOnUse">
    <stop stop-color="#FF3D00"/>
    <stop offset="0.786458" stop-color="#FF7A00"/>
    <stop offset="0.984375" stop-color="#FF7A00"/>
    </linearGradient>
    </defs>
    </svg>
    