<svg xmlns="http://www.w3.org/2000/svg" version="1.1" xmlns:xlink="http://www.w3.org/1999/xlink" width="512" height="512" x="0" y="0" viewBox="0 0 490.667 490.667" style="enable-background:new 0 0 512 512" xml:space="preserve"><g><path d="M490.667 85.333V384a42.932 42.932 0 0 1-12.48 30.187L288 224l-2.987-4.587 205.654-134.08z" style="" fill="#F6B445" data-original="#f6b445"></path><path d="M478.187 414.187A42.932 42.932 0 0 1 448 426.667H42.667a42.932 42.932 0 0 1-30.187-12.48L202.667 224l2.667-4.16 40 25.493 39.68-25.92L288 224l190.187 190.187z" style="" fill="#F6A645" data-original="#f6a645"></path><path d="m205.334 219.84-2.667 4.16L12.48 414.187A42.932 42.932 0 0 1 0 384V106.667a42.062 42.062 0 0 1 1.92-12.693L10.667 96l194.667 123.84z" style="" fill="#F6B445" data-original="#f6b445"></path><path d="m490.667 85.333-205.653 134.08-39.68 25.92-40-25.493L10.667 96 1.92 93.973C7.477 76.14 23.988 63.995 42.667 64h394.667c42.666 0 53.333 21.333 53.333 21.333z" style="" fill="#FED049" data-original="#fed049"></path></g></svg>