<svg width="80" height="80" viewBox="0 0 80 80" fill="none" xmlns="http://www.w3.org/2000/svg">
    <g clip-path="url(#clip0)">
    <path d="M63.1438 0.206055L79.041 16.7775V79.7946H19.6553V80.0003H79.2439V16.986L63.1438 0.206055Z" fill="#909090"/>
    <path d="M62.945 0H19.4507V79.7942H79.0393V16.78L62.9421 0" fill="#F4F4F4"/>
    <path d="M19.0145 4.28516H0.757324V23.7909H58.1859V4.28516H19.0145Z" fill="#7A7B7C"/>
    <path d="M58.4913 23.4594H1.12842V3.93945H58.4913V23.4594Z" fill="#DD2025"/>
    <path d="M20.1498 7.23975H16.4155V20.954H19.3527V16.3283L20.0012 16.3655C20.6314 16.3546 21.2557 16.2417 21.8498 16.0312C22.3707 15.852 22.8498 15.5692 23.2584 15.1997C23.6741 14.8478 24.0018 14.4036 24.2155 13.9026C24.5021 13.0697 24.6044 12.1846 24.5155 11.3083C24.4977 10.6823 24.3879 10.0624 24.1898 9.46832C24.0094 9.03948 23.7418 8.65289 23.4038 8.33315C23.0659 8.01342 22.6651 7.76754 22.227 7.61117C21.8481 7.47403 21.4567 7.3745 21.0584 7.31403C20.7567 7.26749 20.4521 7.24267 20.147 7.23975H20.1498ZM19.607 13.794H19.3527V9.56546H19.9041C20.1475 9.54791 20.3917 9.58527 20.6187 9.67478C20.8457 9.76429 21.0496 9.90366 21.2155 10.0826C21.5593 10.5426 21.7429 11.1026 21.7384 11.6769C21.7384 12.3797 21.7384 13.0169 21.1041 13.4655C20.6471 13.7168 20.127 13.8299 19.607 13.7912" fill="#464648"/>
    <path d="M30.0937 7.2029C29.7766 7.2029 29.468 7.22575 29.2509 7.23432L28.5709 7.25147H26.3423V20.9657H28.9651C29.9675 20.9932 30.9655 20.8233 31.9023 20.4657C32.6563 20.1667 33.324 19.6845 33.8451 19.0629C34.3519 18.4356 34.7156 17.7053 34.9109 16.9229C35.1353 16.0368 35.2448 15.1255 35.2366 14.2115C35.292 13.1319 35.2085 12.0497 34.988 10.9915C34.7788 10.2125 34.387 9.49459 33.8451 8.89718C33.42 8.41479 32.8995 8.02567 32.3166 7.75432C31.8159 7.52266 31.2893 7.35191 30.748 7.24575C30.5327 7.21019 30.3147 7.19394 30.0966 7.19718L30.0937 7.2029ZM29.5766 18.4457H29.2909V9.69147H29.328C29.917 9.62369 30.513 9.72997 31.0423 9.99718C31.4299 10.3067 31.7457 10.6966 31.968 11.14C32.2079 11.6067 32.3461 12.1189 32.3737 12.6429C32.3994 13.2715 32.3737 13.7857 32.3737 14.2115C32.3853 14.7019 32.3538 15.1923 32.2794 15.6772C32.1914 16.175 32.0286 16.6566 31.7966 17.1057C31.534 17.5233 31.1792 17.8752 30.7594 18.1343C30.4069 18.3623 29.9895 18.4687 29.5709 18.4372" fill="#464648"/>
    <path d="M44.0869 7.25195H37.144V20.9662H40.0812V15.5262H43.7955V12.9777H40.0812V9.80052H44.0812V7.25195" fill="#464648"/>
    <path d="M56.5167 52.1577C56.5167 52.1577 65.6253 50.5063 65.6253 53.6177C65.6253 56.7291 59.9825 55.4634 56.5167 52.1577ZM49.7825 52.3949C48.3353 52.7146 46.925 53.1828 45.5739 53.792L46.7167 51.2206C47.8596 48.6491 49.0453 45.1434 49.0453 45.1434C50.4091 47.4387 51.9958 49.5939 53.7825 51.5777C52.4351 51.7786 51.0997 52.0533 49.7825 52.4006V52.3949ZM46.1767 33.8234C46.1767 31.112 47.0539 30.372 47.7367 30.372C48.4196 30.372 49.1882 30.7006 49.2139 33.0549C48.9914 35.4222 48.4957 37.7558 47.7367 40.0092C46.6971 38.1173 46.1591 35.9907 46.1739 33.832L46.1767 33.8234ZM32.8939 63.8691C30.0996 62.1977 38.7539 57.052 40.3225 56.8863C40.3139 56.8891 35.8196 65.6177 32.8939 63.8691ZM68.2853 53.9863C68.2567 53.7006 67.9996 50.5377 62.371 50.672C60.025 50.6342 57.68 50.7996 55.3625 51.1663C53.1175 48.9046 51.1843 46.3535 49.6139 43.5806C50.6032 40.7218 51.202 37.7425 51.3939 34.7234C51.311 31.2949 50.491 29.3292 47.8625 29.3577C45.2339 29.3863 44.851 31.6863 45.1967 35.1092C45.5354 37.4093 46.1742 39.6551 47.0967 41.7891C47.0967 41.7891 45.8825 45.5691 44.2767 49.3291C42.671 53.0891 41.5739 55.0606 41.5739 55.0606C38.7817 55.9695 36.1531 57.32 33.7882 59.0606C31.4339 61.252 30.4767 62.9348 31.7167 64.6177C32.7853 66.0691 36.5253 66.3977 39.8682 62.0177C41.6443 59.7555 43.267 57.3768 44.7253 54.8977C44.7253 54.8977 49.8225 53.5006 51.4082 53.1177C52.9939 52.7349 54.911 52.432 54.911 52.432C54.911 52.432 59.5653 57.1149 64.0539 56.9491C68.5425 56.7834 68.3253 54.2663 68.2967 53.992" fill="#DD2025"/>
    <path d="M62.7271 0.220215V17.0002H78.8213L62.7271 0.220215Z" fill="#909090"/>
    <path d="M62.9473 0V16.78H79.0416L62.9473 0Z" fill="#F4F4F4"/>
    <path d="M19.9286 7.01953H16.1943V20.7338H19.1429V16.111L19.7943 16.1481C20.4245 16.1373 21.0488 16.0244 21.6429 15.8138C22.1637 15.6346 22.6429 15.3518 23.0515 14.9824C23.4641 14.6295 23.7888 14.1854 24 13.6852C24.2866 12.8524 24.389 11.9672 24.3001 11.091C24.2822 10.465 24.1725 9.84502 23.9743 9.25096C23.794 8.82212 23.5263 8.43553 23.1884 8.1158C22.8504 7.79606 22.4496 7.55018 22.0115 7.39382C21.6309 7.25533 21.2376 7.15484 20.8372 7.09382C20.5356 7.04728 20.231 7.02245 19.9258 7.01953H19.9286ZM19.3858 13.5738H19.1315V9.34524H19.6858C19.9291 9.32769 20.1733 9.36506 20.4003 9.45457C20.6273 9.54408 20.8313 9.68345 20.9972 9.86239C21.341 10.3224 21.5246 10.8824 21.52 11.4567C21.52 12.1595 21.5201 12.7967 20.8858 13.2452C20.4288 13.4966 19.9087 13.6097 19.3886 13.571" fill="white"/>
    <path d="M29.8762 6.98268C29.559 6.98268 29.2504 7.00554 29.0333 7.01411L28.3619 7.03125H26.1333V20.7455H28.7562C29.7585 20.773 30.7565 20.6031 31.6933 20.2455C32.4473 19.9465 33.115 19.4643 33.6362 18.8427C34.1429 18.2154 34.5066 17.4851 34.7019 16.7027C34.9263 15.8166 35.0358 14.9053 35.0276 13.9912C35.083 12.9117 34.9995 11.8295 34.779 10.7713C34.5698 9.99229 34.1781 9.27437 33.6362 8.67697C33.211 8.19457 32.6905 7.80545 32.1076 7.53411C31.607 7.30244 31.0803 7.1317 30.539 7.02554C30.3238 6.98998 30.1057 6.97372 29.8876 6.97697L29.8762 6.98268ZM29.3676 18.2255H29.0819V9.47125H29.119C29.708 9.40348 30.304 9.50976 30.8333 9.77697C31.2209 10.0865 31.5367 10.4764 31.759 10.9198C31.9989 11.3865 32.1372 11.8987 32.1647 12.4227C32.1904 13.0512 32.1647 13.5655 32.1647 13.9912C32.1764 14.4816 32.1448 14.9721 32.0704 15.457C31.9824 15.9548 31.8196 16.4364 31.5876 16.8855C31.325 17.3031 30.9702 17.655 30.5504 17.9141C30.1979 18.1421 29.7805 18.2485 29.3619 18.217" fill="white"/>
    <path d="M43.8667 7.03174H36.9238V20.746H39.861V15.306H43.5752V12.7574H39.861V9.58031H43.861V7.03174" fill="white"/>
    </g>
    <defs>
    <clipPath id="clip0">
    <rect width="80" height="80" fill="white"/>
    </clipPath>
    </defs>
    </svg>
    