<svg width="32" height="32" viewBox="0 0 32 32" fill="none" xmlns="http://www.w3.org/2000/svg">
<path d="M19.5807 15.3504L8.51172 13.4004V27.8094C8.51185 27.9659 8.54281 28.1209 8.60284 28.2655C8.66286 28.41 8.75077 28.5414 8.86155 28.652C8.97233 28.7626 9.10381 28.8503 9.24848 28.91C9.39315 28.9698 9.54818 29.0005 9.70472 29.0004H28.8047C28.9614 29.0008 29.1167 28.9703 29.2616 28.9106C29.4065 28.8509 29.5382 28.7633 29.6492 28.6527C29.7602 28.5421 29.8483 28.4106 29.9084 28.2659C29.9686 28.1212 29.9996 27.9661 29.9997 27.8094V22.5004L19.5807 15.3504Z" fill="#185C37"/>
<path d="M19.5807 3H9.70472C9.54818 2.99987 9.39315 3.03057 9.24848 3.09035C9.10381 3.15014 8.97233 3.23783 8.86155 3.34842C8.75077 3.45902 8.66286 3.59035 8.60284 3.73492C8.54281 3.87949 8.51185 4.03446 8.51172 4.191V9.5L19.5807 16L25.4417 17.95L29.9997 16V9.5L19.5807 3Z" fill="#21A366"/>
<path d="M8.51172 9.5H19.5807V16H8.51172V9.5Z" fill="#107C41"/>
<path opacity="0.1" d="M16.4337 8.2002H8.51172V24.4502H16.4337C16.7494 24.4486 17.0517 24.3227 17.2752 24.0998C17.4987 23.8769 17.6254 23.5749 17.6277 23.2592V9.3912C17.6254 9.07553 17.4987 8.77352 17.2752 8.55059C17.0517 8.32765 16.7494 8.20176 16.4337 8.2002Z" fill="black"/>
<path opacity="0.2" d="M15.7827 8.84961H8.51172V25.0996H15.7827C16.0984 25.098 16.4007 24.9721 16.6242 24.7492C16.8477 24.5263 16.9744 24.2243 16.9767 23.9086V10.0406C16.9744 9.72495 16.8477 9.42293 16.6242 9.2C16.4007 8.97707 16.0984 8.85118 15.7827 8.84961Z" fill="black"/>
<path opacity="0.2" d="M15.7827 8.84961H8.51172V23.7996H15.7827C16.0984 23.798 16.4007 23.6722 16.6242 23.4492C16.8477 23.2263 16.9744 22.9243 16.9767 22.6086V10.0406C16.9744 9.72495 16.8477 9.42293 16.6242 9.2C16.4007 8.97707 16.0984 8.85118 15.7827 8.84961Z" fill="black"/>
<path opacity="0.2" d="M15.1317 8.84961H8.51172V23.7996H15.1317C15.4474 23.798 15.7497 23.6722 15.9732 23.4492C16.1967 23.2263 16.3234 22.9243 16.3257 22.6086V10.0406C16.3234 9.72495 16.1967 9.42293 15.9732 9.2C15.7497 8.97707 15.4474 8.85118 15.1317 8.84961Z" fill="black"/>
<path d="M3.194 8.84961H15.132C15.4482 8.84935 15.7516 8.97464 15.9755 9.19797C16.1994 9.4213 16.3255 9.72438 16.326 10.0406V21.9586C16.3255 22.2748 16.1994 22.5779 15.9755 22.8013C15.7516 23.0246 15.4482 23.1499 15.132 23.1496H3.194C3.03738 23.1499 2.88224 23.1193 2.73746 23.0595C2.59267 22.9998 2.46108 22.9122 2.35019 22.8015C2.2393 22.6909 2.1513 22.5596 2.09121 22.4149C2.03113 22.2703 2.00013 22.1152 2 21.9586V10.0406C2.00013 9.88399 2.03113 9.72893 2.09121 9.5843C2.1513 9.43966 2.2393 9.30829 2.35019 9.19768C2.46108 9.08707 2.59267 8.9994 2.73746 8.93968C2.88224 8.87995 3.03738 8.84935 3.194 8.84961Z" fill="url(#paint0_linear_4556_9118)"/>
<path d="M5.69922 19.873L8.21022 15.989L5.91022 12.127H7.75722L9.01222 14.6C9.12822 14.834 9.21222 15.008 9.25022 15.124H9.26722C9.34922 14.936 9.43622 14.755 9.52722 14.578L10.8692 12.131H12.5692L10.2102 15.971L12.6292 19.876H10.8202L9.37022 17.165C9.30289 17.0484 9.24568 16.9263 9.19922 16.8H9.17522C9.13294 16.923 9.07656 17.0408 9.00722 17.151L7.51422 19.873H5.69922Z" fill="white"/>
<path d="M28.8051 3H19.5801V9.5H29.9991V4.191C29.9989 4.03438 29.968 3.87932 29.9079 3.73469C29.8478 3.59005 29.7598 3.45868 29.6489 3.34807C29.538 3.23746 29.4064 3.14979 29.2616 3.09007C29.1168 3.03034 28.9617 2.99974 28.8051 3Z" fill="#33C481"/>
<path d="M19.5801 16H29.9991V22.5H19.5801V16Z" fill="#107C41"/>
<defs>
<linearGradient id="paint0_linear_4556_9118" x1="4.494" y1="7.91361" x2="13.832" y2="24.0856" gradientUnits="userSpaceOnUse">
<stop stop-color="#18884F"/>
<stop offset="0.5" stop-color="#117E43"/>
<stop offset="1" stop-color="#0B6631"/>
</linearGradient>
</defs>
</svg>
