<svg xmlns="http://www.w3.org/2000/svg" version="1.1" xmlns:xlink="http://www.w3.org/1999/xlink" width="512" height="512" x="0" y="0" viewBox="0 0 60 60" style="enable-background:new 0 0 512 512" xml:space="preserve" class=""><g><path fill="#E58B0A" d="M1 21V7a3 3 0 0 1 3-3h14.19a5 5 0 0 1 3.2 1.159l3.218 2.682A5 5 0 0 0 27.81 9H56a3 3 0 0 1 3 3v9z" opacity="1" data-original="#e58b0a" class=""></path><path fill="#FFFFFF" d="M6 19v-3a3 3 0 0 1 3-3h42a3 3 0 0 1 3 3v3z" opacity="1" data-original="#ffffff"></path><rect width="58" height="38" x="1" y="18" fill="#FFB90B" rx="3" opacity="1" data-original="#ffb90b"></rect><g fill="#4D597C"><path d="M32 41h-2a1 1 0 0 1 0-2h2a1 1 0 0 1 0 2zM32 45h-2a1 1 0 0 1 0-2h2a1 1 0 0 1 0 2zM30 43h-2a1 1 0 0 1 0-2h2a1 1 0 0 1 0 2zM32 49h-2a1 1 0 0 1 0-2h2a1 1 0 0 1 0 2zM30 47h-2a1 1 0 0 1 0-2h2a1 1 0 0 1 0 2zM32 53h-2a1 1 0 0 1 0-2h2a1 1 0 0 1 0 2zM30 51h-2a1 1 0 0 1 0-2h2a1 1 0 0 1 0 2z" fill="#4D597C" opacity="1" data-original="#4d597c"></path></g><path fill="#394263" d="M29 36h2v20h-2z" opacity="1" data-original="#394263" class=""></path><path fill="#FFFFFF" d="M30 37a4 4 0 0 1-4-3.99 3.879 3.879 0 0 1 .06-.67L27 27v-1h6v1l.94 5.34A4 4 0 0 1 30 37z" opacity="1" data-original="#ffffff"></path><rect width="8" height="5" x="26" y="22" fill="#E9ECF4" rx="1" opacity="1" data-original="#e9ecf4"></rect><path fill="#FFB90B" d="M30 34a1 1 0 0 1-1-1v-1a1 1 0 0 1 2 0v1a1 1 0 0 1-1 1z" opacity="1" data-original="#ffb90b"></path></g></svg>